<?xml version="1.0" standalone="no"?>
<!DOCTYPE svg PUBLIC "-//W3C//DTD SVG 20010904//EN"
 "http://www.w3.org/TR/2001/REC-SVG-20010904/DTD/svg10.dtd">
<svg version="1.0" xmlns="http://www.w3.org/2000/svg"
 width="42.000000pt" height="42.000000pt" viewBox="0 0 42.000000 42.000000"
 preserveAspectRatio="xMidYMid meet">

<g transform="translate(0.000000,42.000000) scale(0.100000,-0.100000)"
fill="#000000" stroke="none">
<path d="M142 408 c-6 -6 -12 -18 -12 -25 0 -8 -13 -13 -33 -13 -52 0 -77 -41
-42 -70 12 -10 15 -39 15 -144 0 -89 4 -136 12 -144 17 -17 239 -17 256 0 8 8
12 55 12 144 0 105 3 134 15 144 34 28 10 70 -40 70 -22 0 -33 6 -40 23 -9 19
-19 22 -70 25 -38 2 -65 -2 -73 -10z m128 -23 c0 -12 -13 -15 -60 -15 -47 0
-60 3 -60 15 0 12 13 15 60 15 47 0 60 -3 60 -15z m85 -55 c0 -12 -23 -15
-139 -18 -134 -2 -166 3 -151 27 4 8 52 11 148 9 118 -3 142 -6 142 -18z m-27
-172 l-3 -133 -115 0 -115 0 -3 133 -3 132 121 0 121 0 -3 -132z"/>
<path d="M147 263 c-11 -10 -8 -191 3 -198 6 -4 10 32 10 99 0 106 -1 112 -13
99z"/>
<path d="M200 165 c0 -63 4 -105 10 -105 6 0 10 42 10 105 0 63 -4 105 -10
105 -6 0 -10 -42 -10 -105z"/>
<path d="M260 165 c0 -68 4 -104 10 -100 13 8 13 192 0 200 -6 4 -10 -32 -10
-100z"/>
</g>
</svg>
